P2
4 4 #dimension
255
30 50 80 70
15 10 32 0
1 2 3 5
198 230 0 4